<svg width="64" height="49" viewBox="0 0 64 49" fill="none" xmlns="http://www.w3.org/2000/svg">
<path d="M11.0295 47.896C7.87217 47.896 5.3975 46.8293 3.6055 44.696C1.8135 42.4773 0.9175 39.7467 0.9175 36.504C0.9175 32.4933 2.88017 28.056 6.8055 23.192C10.8162 18.4133 14.8268 16.024 18.8375 16.024C21.9095 16.024 23.4455 17.176 23.4455 19.48C23.4455 20.3333 22.8482 21.8693 21.6535 24.088C20.5442 26.392 19.7335 27.544 19.2215 27.544C18.9655 27.544 18.7948 27.2453 18.7095 26.648C18.7095 26.3067 18.7948 25.752 18.9655 24.984C19.2215 24.216 19.3495 23.6613 19.3495 23.32C19.3495 21.1867 18.0695 20.12 15.5095 20.12C12.6935 20.12 10.2615 21.912 8.2135 25.496C6.4215 28.6533 5.5255 31.8107 5.5255 34.968C5.5255 41.2827 8.17083 44.44 13.4615 44.44C17.7282 44.44 21.3122 43.416 24.2135 41.368C27.1148 39.2347 29.9735 36.5467 32.7895 33.304C33.2162 32.8773 33.6002 32.664 33.9415 32.664C34.2828 32.664 34.4535 32.8347 34.4535 33.176C34.4535 33.5173 34.2828 33.9013 33.9415 34.328C33.6855 34.7547 33.4295 35.1813 33.1735 35.608C32.0642 37.0587 30.6988 38.5947 29.0775 40.216C27.5415 41.8373 25.7922 43.2453 23.8295 44.44C21.4402 45.8053 19.1788 46.7013 17.0455 47.128C14.9122 47.64 12.9068 47.896 11.0295 47.896ZM44.4465 8.088C43.4225 8.088 42.4838 7.61866 41.6305 6.68C40.7772 5.74133 40.3505 4.76 40.3505 3.736C40.3505 1.34666 41.6732 0.151997 44.3185 0.151997C46.8785 0.151997 48.1585 1.38933 48.1585 3.864C48.1585 6.68 46.9212 8.088 44.4465 8.088ZM42.7825 48.024C39.8812 48.024 37.4492 47.0427 35.4865 45.08C33.6092 43.032 32.6705 40.088 32.6705 36.248C32.6705 31.5547 33.9505 26.776 36.5105 21.912C37.4492 20.12 39.0705 19.224 41.3745 19.224C42.7398 19.224 43.4225 19.6507 43.4225 20.504C43.4225 20.76 43.2945 21.144 43.0385 21.656C40.0518 27.3733 38.5585 32.28 38.5585 36.376C38.5585 39.3627 39.0705 41.5387 40.0945 42.904C41.2038 44.2693 42.6972 44.952 44.5745 44.952C47.5612 44.952 50.5478 43.8427 53.5345 41.624C56.5212 39.32 59.4225 36.5467 62.2385 33.304C62.4945 32.8773 62.8785 32.664 63.3905 32.664C63.7318 32.664 63.9025 32.8347 63.9025 33.176C63.9025 33.432 63.7318 33.816 63.3905 34.328C63.1345 34.7547 62.8785 35.1813 62.6225 35.608C61.5132 37.0587 60.1905 38.552 58.6545 40.088C57.1185 41.624 55.3265 43.0747 53.2785 44.44C51.6572 45.5493 49.9078 46.4027 48.0305 47C46.2385 47.6827 44.4892 48.024 42.7825 48.024Z" fill="white"/>
</svg>
